<?xml version="1.0" standalone="no"?>
<!DOCTYPE svg PUBLIC "-//W3C//DTD SVG 1.1//EN" "http://www.w3.org/Graphics/SVG/1.1/DTD/svg11.dtd">
<svg xmlns="http://www.w3.org/2000/svg">
<metadata>Generated by Fontastic.me</metadata>
<defs>
<font id="nemo" horiz-adv-x="512">
<font-face font-family="nemo" units-per-em="512" ascent="480" descent="-32"/>
<missing-glyph horiz-adv-x="512" />

<glyph glyph-name="arrow-1-square-down" unicode="&#97;" d="M128 320l0-32 128-128 0 32z m128-160l0 32 128 128 0-32z m192 288l0-384-384 0 0 384 384 0m32 32l-448 0 0-448 448 0z"/>
<glyph glyph-name="arrow-1-square-left" unicode="&#98;" d="M320 384l-32 0-128-128 32 0z m-160-128l32 0 128-128-32 0z m288 192l0-384-384 0 0 384 384 0m32 32l-448 0 0-448 448 0z"/>
<glyph glyph-name="arrow-1-square-right" unicode="&#99;" d="M192 128l32 0 128 128-32 0z m160 128l-32 0-128 128 32 0z m96 192l0-384-384 0 0 384 384 0m32 32l-448 0 0-448 448 0z"/>
<glyph glyph-name="arrow-1-square-up" unicode="&#100;" d="M384 192l0 32-128 128 0-32z m-128 160l0-32-128-128 0 32z m192 96l0-384-384 0 0 384 384 0m32 32l-448 0 0-448 448 0z"/>
<glyph glyph-name="arrow-down-a" unicode="&#101;" d="M257 63l192 192-112 0 0 192-160 0 0-192-112 0z"/>
<glyph glyph-name="search" unicode="&#102;" d="M445 125l-85 86c14 24 21 51 21 78 0 88-71 159-158 159-88 0-159-71-159-159 0-88 71-159 159-159 28 0 55 8 80 23l84-86c2-2 5-3 7-3 3 0 6 1 8 3l43 44c4 4 4 10 0 14z m-222 261c53 0 96-43 96-97 0-53-43-97-96-97-54 0-97 44-97 97 0 54 43 97 97 97z"/>
<glyph glyph-name="linkedin21" unicode="&#103;" d="M256 506c-138 0-250-112-250-250 0-138 112-250 250-250 138 0 250 112 250 250 0 138-112 250-250 250z m-94-419l-70 0 0 226 70 0z m-35 257c-22 0-41 18-41 41 0 22 19 40 41 40 23 0 41-18 41-40 0-23-18-41-41-41z m299-257l-71 0 0 110c0 26 0 60-36 60-37 0-42-29-42-58l0-112-71 0 0 226 68 0 0-31 1 0c9 18 32 37 66 37 72 0 85-47 85-108z"/>
<glyph glyph-name="twitter37" unicode="&#104;" d="M256 506c-138 0-250-112-250-250 0-138 112-250 250-250 138 0 250 112 250 250 0 138-112 250-250 250z m151-183c0-3 1-6 1-9 0-107-82-218-218-218-42 0-82 12-117 35-1 0-1 1-1 2 0 1 1 1 2 1 6-1 12-1 18-1 32 0 63 10 89 29-31 3-58 24-67 54-1 0-1 1 0 2 0 0 1 0 2 0 8-2 17-2 25 0-32 10-54 40-54 74l0 1c0 1 0 1 1 1 0 1 1 1 2 0 8-4 17-7 27-8-19 14-30 37-30 60 0 14 4 28 11 39 0 1 1 1 1 1 1 0 2 0 2 0 38-47 93-75 152-79-1 5-1 10-1 16 0 42 35 77 78 77 21 0 41-8 56-24 16 4 32 10 46 18 1 1 2 1 2 0 1 0 1-1 1-2-5-15-15-28-27-38 12 2 23 6 34 11 1 0 2 0 3-1 0-1 0-1 0-2-10-15-23-29-38-39z"/>
<glyph glyph-name="youtube30" unicode="&#105;" d="M137 238l20 0 0-108 19 0 0 108 20 0 0 17-59 0z m159-14c-6 0-12-3-18-10l0 41-16 0 0-125 16 0 0 9c6-7 12-10 18-10 7 0 11 3 13 10 2 4 2 10 2 19l0 37c0 9 0 15-2 19-2 7-6 10-13 10z m-2-67c0-9-2-13-7-13-3 0-6 2-9 4l0 57c3 3 6 4 9 4 5 0 7-4 7-12z m-64-5c-4-5-7-8-11-8-2 0-3 2-3 4-1 1-1 3-1 7l0 68-17 0 0-73c0-7 1-11 2-14 2-5 5-7 11-7 6 0 12 4 19 11l0-10 17 0 0 93-17 0z m15 157c5 0 8 5 8 13l0 40c0 9-3 13-8 13-6 0-9-4-9-13l0-40c0-8 3-13 9-13z m11 197c-138 0-250-112-250-250 0-138 112-250 250-250 138 0 250 112 250 250 0 138-112 250-250 250z m28-117l17 0 0-69c0-4 0-6 0-7 0-2 2-4 4-4 3 0 7 3 11 8l0 72 17 0 0-94-17 0 0 10c-7-7-13-11-20-11-5 0-9 2-11 7-1 3-1 7-1 14l0 74z m-65-30c0 10 2 17 6 22 4 6 11 9 20 9 8 0 15-3 20-9 3-5 5-12 5-22l0-33c0-10-2-18-5-23-5-6-12-9-20-9-9 0-16 3-20 9-4 5-6 13-6 23z m-45 62l13-49 13 49 19 0-22-75 0-51-19 0 0 51c-2 9-6 23-12 40-4 12-8 24-12 35z m217-299c-4-15-16-26-30-28-35-3-70-3-105-3-35 0-70 0-105 3-14 2-26 13-30 28-5 21-5 44-5 66 0 22 0 45 5 66 4 15 16 26 30 27 35 4 70 4 105 4 35 0 70 0 105-4 14-1 26-12 30-27 5-21 5-44 5-66 0-22 0-45-5-66z m-41 102c-9 0-16-3-21-9-3-5-5-12-5-22l0-33c0-10 2-17 6-22 5-6 11-9 20-9 9 0 16 3 20 10 3 3 4 6 4 10 1 2 1 5 1 11l0 2-17 0c0-6-1-10-1-11-1-5-3-7-7-7-6 0-9 5-9 13l0 17 34 0 0 19c0 10-2 17-5 22-5 6-12 9-20 9z m8-36l-17 0 0 8c0 9 3 13 9 13 5 0 8-4 8-13z"/>
<glyph glyph-name="facebook44" unicode="&#106;" d="M256 506c-138 0-250-112-250-250 0-138 112-250 250-250 138 0 250 112 250 250 0 138-112 250-250 250z m95-127l-34 0c-27 0-33-13-33-32l0-42 65 0 0-65-65 0 0-168-67 0 0 168-56 0 0 65 56 0 0 48c0 56 34 87 84 87l50 0 0-61z"/>
<glyph glyph-name="arrow-up" unicode="&#108;" d="M512 256c0 141-115 256-256 256-141 0-256-115-256-256 0-141 115-256 256-256 141 0 256 115 256 256z m-472 0c0 119 97 216 216 216 119 0 216-97 216-216 0-119-97-216-216-216-119 0-216 97-216 216z m328-30l-112 112-112-112 32-32 80 80 80-80z"/>
<glyph glyph-name="bars" unicode="&#107;" d="M475 128l0-37c0-5-1-9-5-12-4-4-8-6-13-6l-402 0c-5 0-9 2-13 6-4 3-5 7-5 12l0 37c0 5 1 9 5 13 4 3 8 5 13 5l402 0c5 0 9-2 13-5 4-4 5-8 5-13z m0 146l0-36c0-5-1-10-5-13-4-4-8-6-13-6l-402 0c-5 0-9 2-13 6-4 3-5 8-5 13l0 36c0 5 1 10 5 13 4 4 8 6 13 6l402 0c5 0 9-2 13-6 4-3 5-8 5-13z m0 147l0-37c0-5-1-9-5-13-4-3-8-5-13-5l-402 0c-5 0-9 2-13 5-4 4-5 8-5 13l0 37c0 5 1 9 5 12 4 4 8 6 13 6l402 0c5 0 9-2 13-6 4-3 5-7 5-12z"/>
<glyph glyph-name="map-pin-streamline" unicode="&#109;" d="M256 512c-94 0-171-77-171-171 0-90 156-316 162-326l9-12 9 12c6 10 162 236 162 326 0 94-77 171-171 171z m0-472c-33 50-149 229-149 301 0 83 67 150 149 150 82 0 149-67 149-150 0-72-116-251-149-301z m0 376c-41 0-75-33-75-75 0-41 34-74 75-74 41 0 75 33 75 74 0 42-34 75-75 75z m0-128c-29 0-53 24-53 53 0 30 24 54 53 54 29 0 53-24 53-54 0-29-24-53-53-53z"/>
<glyph glyph-name="location" unicode="&#110;" d="M256 228c53 0 96 43 96 96 0 53-43 96-96 96-53 0-96-43-96-96 0-53 43-96 96-96z m0 176c44 0 80-36 80-80 0-44-36-80-80-80-44 0-80 36-80 80 0 44 36 80 80 80z m0 108c-106 0-192-85-192-192 0-112 96-227 166-307 0 0 12-13 25-13 0 0 2 0 2 0 13 0 25 13 25 13 70 80 166 195 166 307 0 107-86 192-192 192z m2-478c0 0-1-1-2-2 0 1-2 2-2 2-59 68-158 182-158 286 0 88 72 160 160 160 88 0 160-72 160-160 0-104-99-218-158-286z"/>
<glyph glyph-name="cancel" unicode="&#111;" d="M367 176c6-6 9-13 9-22 0-8-3-16-9-22-6-5-13-8-22-8-8 0-16 3-22 8 0 0-68 78-68 78 0 0-67-78-67-78-6-5-14-8-22-8-9 0-16 3-22 8-6 6-8 14-8 22 0 9 2 16 8 22 0 0 71 80 71 80 0 0-71 81-71 81-6 6-8 13-8 22 0 8 2 16 8 22 6 5 13 8 22 8 8 0 16-3 22-8 0 0 67-78 67-78 0 0 68 78 68 78 6 5 14 8 22 8 9 0 16-3 22-8 6-6 9-14 9-22 0-9-3-16-9-22 0 0-71-81-71-81 0 0 71-80 71-80"/>
<glyph glyph-name="email" unicode="&#112;" d="M505 341l-82 60 0 66c0 0-7 8-15 8l-96 0-52 37c0 0-8 0-8 0l-52-37-96 0c-8 0-8-8-8-8l0-66-89-60c-7-7-7-7-7-15 0-74 0-319 0-319 0 0 7-7 7-7l498 0c7 0 7 7 7 15 0 0 0 237 0 311 0 8 0 8-7 15z m-82 30l59-45-59-44z m-163 119l15-15-38 0z m-141-37l282 0 0-186-141-104-141 104z m-23-82l0-89-66 44z m-74-59l186-134-186-148z m23-290l178 141 29-15c0-7 8-7 8 0l29 15 186-141z m445 8l-186 148 186 134z m-156 371l-156 0 0-23 156 0z m0-67l-156 0 0-22 156 0z m0-67l-156 0 0-22 156 0z"/>
<glyph glyph-name="location-1" unicode="&#114;" d="M256 203c-58 0-105 45-105 101 0 56 47 102 105 102 57 0 104-46 104-102 0-56-46-101-104-101z m9 309l-18 0c-113-5-203-95-203-205l0-1c0-13 2-25 3-38 1-1 1-3 2-6 3-15 8-28 14-41 23-52 73-133 184-218 2-2 5-3 9-3 3 0 6 1 9 3 110 85 160 166 183 218 6 13 11 26 14 41 1 3 1 5 1 6 3 13 5 25 5 38l0 1c-1 110-91 200-203 205z m-9-77c-75 0-135-59-135-131 0-72 60-130 135-130 73 0 134 58 134 130 0 72-61 131-134 131z m178-162c0 0 0 0 0 0-1-1-1-2-2-5 0-1 0-1 0-1-2-11-6-23-11-35 0 0 0 0-1 0-20-47-65-120-164-199-99 79-144 152-165 199-6 12-10 24-13 35 0 0 0 0 0 1-1 3-1 4-1 5 0 0 0 0 0 0-2 11-3 23-3 34 0 97 81 176 182 176 99 0 181-79 181-176 0-12-1-23-3-34z"/>
<glyph glyph-name="user" unicode="&#115;" d="M346 196c49 30 81 83 81 146 0 93-77 170-170 170-95 0-172-77-172-170 0-63 33-116 81-146-85-32-149-107-166-196l43 0c21 97 108 170 214 170 104 0 191-73 213-170l42 0c-16 92-81 166-166 196z m-218 146c0 70 58 127 129 127 70 0 127-57 127-127 0-72-57-129-127-129-71 0-129 57-129 129z"/>
<glyph glyph-name="wallet" unicode="&#116;" d="M491 484l-470 0c-14 0-21-7-21-21l0-413c0-14 7-21 21-21l470 0c14 0 21 7 21 21l0 413c0 14-7 21-21 21z m-22-412l-426 0 0 369 426 0 0-85-142 0c-57 0-99-43-99-100 0-56 42-99 99-99l142 0z m0 128l-142 0c-36 0-57 28-57 56 0 29 21 57 57 57l142 0z m-156 56c0-14 7-21 21-21 14 0 21 7 21 21 0 15-7 22-21 22-14 0-21-7-21-22z"/>
<glyph glyph-name="reorder-square-line" unicode="&#118;" d="M193 483l-139 0c-14 0-26-11-26-25l0-139c0-14 12-25 26-25l139 0c13 0 25 11 25 25l0 139c0 14-12 25-25 25z m-18-147l-104 0 0 104 104 0z m283 147l-139 0c-14 0-25-11-25-25l0-139c0-14 11-25 25-25l139 0c14 0 26 11 26 25l0 139c0 14-12 25-26 25z m-17-147l-104 0 0 104 104 0z m-248-118l-139 0c-14 0-26-11-26-25l0-139c0-14 12-25 26-25l139 0c13 0 25 11 25 25l0 139c0 14-12 25-25 25z m-18-146l-104 0 0 104 104 0z m283 146l-139 0c-14 0-25-11-25-25l0-139c0-14 11-25 25-25l139 0c14 0 26 11 26 25l0 139c0 14-12 25-26 25z m-17-146l-104 0 0 104 104 0z"/>
<glyph glyph-name="list" unicode="&#117;" d="M463 497l-414 0c-27 0-49-22-49-49l0-384c0-27 22-49 49-49l414 0c27 0 49 22 49 49l0 384c0 27-22 49-49 49z m7-433c0-4-3-7-7-7l-414 0c-4 0-7 3-7 7l0 384c0 4 3 7 7 7l414 0c4 0 7-3 7-7z m-41 332l-344 0 0-34 344 0z m0-120l-344 0 0-34 344 0z m-344-161l345 0 0 34-345 0z"/>
<glyph glyph-name="delete" unicode="&#119;" d="M256 512c-141 0-256-115-256-256 0-141 115-256 256-256 141 0 256 115 256 256 0 141-115 256-256 256z m0-468c-117 0-212 95-212 212 0 117 95 212 212 212 117 0 212-95 212-212 0-117-95-212-212-212z m31 212l68 68c9 9 9 22 0 31-8 9-22 9-31 0l-68-68-68 68c-9 9-22 9-31 0-9-9-9-22 0-31l68-68-68-68c-9-9-9-23 0-31 4-4 10-6 15-6 6 0 12 2 16 6l68 68 68-68c4-4 10-6 16-6 5 0 11 2 15 6 9 8 9 22 0 31z"/>
<glyph glyph-name="edit" unicode="&#120;" d="M200 203c3-3 6-4 10-4 4 0 8 1 10 4l156 154c5 5 5 15 0 20-6 6-15 6-21 0l-155-153c-6-6-6-15 0-21z m308 216c-5 17-18 36-36 53-18 19-46 40-75 40-13 0-24-4-34-13-1 0-1-1-2-1l-55-55-291 0c-8 0-15-7-15-15l0-414c0-8 7-14 15-14l418 0c8 0 15 6 15 14l0 297c0 1 0 2 0 3l48 48c0 0 1 0 1 0l1 1c0 1 1 1 1 2 13 14 17 33 9 54z m-89-390l-390 0 0 385 247 0-178-177c-2-2-4-5-4-7l-35-158c-1-5 1-10 5-14 3-2 6-4 10-4 1 0 283 0 283 0l0 29-179 0 48 14c2 1 4 2 6 4l187 184z m-302 169l80-79-104-30z m107-65l-95 94 221 218 95-93z m252 250c0 0 0 0 0 0l0 0c0 0 0 0 0 0l-11-11-94 94 10 10c1 1 1 1 1 1 4 4 9 6 15 6 15 0 34-11 54-31 11-11 45-48 25-69z"/>
<glyph glyph-name="trash" unicode="&#122;" d="M480 403c-2 25-23 45-48 45l-48 0 0 16c0 26-22 48-48 48l-160 0c-27 0-48-22-48-48l0-16-48 0c-26 0-46-20-48-45l0 0 0-35c0-18 14-32 32-32l0-272c0-35 29-64 64-64l256 0c35 0 64 29 64 64l0 272c18 0 32 14 32 32l0 35z m-320 61c0 9 7 16 16 16l160 0c9 0 16-7 16-16l0-16-192 0z m256-400c0-18-14-32-32-32l-256 0c-18 0-32 14-32 32l0 272 320 0z m32 320l0-16-384 0 0 32c0 9 7 16 16 16l352 0c9 0 16-7 16-16z m-304-320l32 0c9 0 16 7 16 16l0 208c0 9-7 16-16 16l-32 0c-9 0-16-7-16-16l0-208c0-9 7-16 16-16z m0 224l32 0 0-208-32 0z m96-224l32 0c9 0 16 7 16 16l0 208c0 9-7 16-16 16l-32 0c-9 0-16-7-16-16l0-208c0-9 7-16 16-16z m0 224l32 0 0-208-32 0z m96-224l32 0c9 0 16 7 16 16l0 208c0 9-7 16-16 16l-32 0c-9 0-16-7-16-16l0-208c0-9 7-16 16-16z m0 224l32 0 0-208-32 0z"/>
<glyph glyph-name="pause" unicode="&#121;" d="M449 508l-386 0c-35 0-63-28-63-62l0-380c0-34 28-62 63-62l386 0c35 0 63 28 63 62l0 380c0 34-28 62-63 62z m20-442c0-11-9-20-20-20l-386 0c-11 0-20 9-20 20l0 380c0 11 9 20 20 20l386 0c11 0 20-9 20-20z m-290 323c-12 0-21-9-21-21l0-224c0-12 9-21 21-21 12 0 21 9 21 21l0 224c0 12-9 21-21 21z m154 0c-12 0-21-9-21-21l0-224c0-12 9-21 21-21 11 0 21 9 21 21l0 224c0 12-9 21-21 21z"/>
<glyph glyph-name="share" unicode="&#65;" d="M431 241l0-198-350 0 0 298 24 0 44 43-112 0 0-384 438 0 0 284z m-284-70l43 0 0 94c0 44 40 76 88 76l112 0-95-87 31-28 147 143-147 143-31-34 95-94-112 0c-72 0-131-51-131-119z"/>
<glyph glyph-name="plus-square" unicode="&#66;" d="M347 247l0-18c0-3 0-5-2-7-2-2-4-3-7-3l-64 0 0-64c0-2-1-4-2-6-2-2-4-3-7-3l-18 0c-3 0-5 1-7 3-1 2-2 4-2 6l0 64-64 0c-3 0-5 1-7 3-2 2-2 4-2 7l0 18c0 3 0 5 2 6 2 2 4 3 7 3l64 0 0 64c0 3 1 5 2 7 2 1 4 2 7 2l18 0c3 0 5-1 7-2 1-2 2-4 2-7l0-64 64 0c3 0 5-1 7-3 2-1 2-3 2-6z m37-110l0 201c0 8-3 14-8 20-5 5-12 8-19 8l-202 0c-7 0-14-3-19-8-5-6-8-12-8-20l0-201c0-7 3-14 8-19 5-6 12-8 19-8l202 0c7 0 14 2 19 8 5 5 8 12 8 19z m37 201l0-201c0-17-7-32-19-45-13-13-28-19-45-19l-202 0c-17 0-32 6-45 19-12 13-19 28-19 45l0 201c0 18 7 33 19 46 13 12 28 18 45 18l202 0c17 0 32-6 45-18 12-13 19-28 19-46z"/>
<glyph glyph-name="minus-square" unicode="&#67;" d="M357 402c17 0 32-6 45-18 12-13 19-28 19-46l0-201c0-17-7-32-19-45-13-13-28-19-45-19l-202 0c-17 0-32 6-45 19-12 13-19 28-19 45l0 201c0 18 7 33 19 46 13 12 28 18 45 18z m27-265l0 201c0 8-3 14-8 20-5 5-12 8-19 8l-202 0c-7 0-14-3-19-8-5-6-8-12-8-20l0-201c0-7 3-14 8-19 5-6 12-8 19-8l202 0c7 0 14 2 19 8 5 5 8 12 8 19z m-46 119c3 0 5-1 7-3 2-1 2-3 2-6l0-18c0-3 0-5-2-7-2-2-4-3-7-3l-164 0c-3 0-5 1-7 3-2 2-2 4-2 7l0 18c0 3 0 5 2 6 2 2 4 3 7 3z"/>
<glyph glyph-name="photo" unicode="&#68;" d="M171 341c0-14-5-26-15-36-10-10-22-15-37-15-14 0-26 5-36 15-10 10-15 22-15 36 0 15 5 27 15 37 10 10 22 15 36 15 15 0 27-5 37-15 10-10 15-22 15-37z m273-102l0-120-376 0 0 52 86 85 42-43 137 137z m25 188l-426 0c-3 0-5-1-6-3-2-2-3-4-3-6l0-324c0-2 1-4 3-6 1-2 3-3 6-3l426 0c3 0 5 1 6 3 2 2 3 4 3 6l0 324c0 2-1 4-3 6-1 2-3 3-6 3z m43-9l0-324c0-12-4-22-13-30-8-9-18-13-30-13l-426 0c-12 0-22 4-30 13-9 8-13 18-13 30l0 324c0 12 4 22 13 30 8 9 18 13 30 13l426 0c12 0 22-4 30-13 9-8 13-18 13-30z"/>
<glyph glyph-name="angle-down" unicode="&#69;" d="M399 302c0-3-1-5-3-7l-133-133c-2-2-5-3-7-3-2 0-5 1-7 3l-133 133c-2 2-3 4-3 7 0 2 1 4 3 6l15 15c1 1 4 2 6 2 3 0 5-1 7-2l112-113 112 113c2 1 4 2 7 2 2 0 5-1 6-2l15-15c2-2 3-4 3-6z"/>
<glyph glyph-name="angle-left" unicode="&#70;" d="M344 357c0-3-1-5-3-7l-112-112 112-113c2-1 3-4 3-6 0-3-1-5-3-7l-14-14c-2-2-5-3-7-3-2 0-5 1-7 3l-133 133c-2 2-3 4-3 7 0 2 1 4 3 6l133 133c2 2 5 3 7 3 2 0 5-1 7-3l14-14c2-2 3-4 3-6z"/>
<glyph glyph-name="angle-right" unicode="&#71;" d="M335 238c0-3-1-5-3-7l-133-133c-2-2-5-3-7-3-2 0-5 1-7 3l-14 14c-2 2-3 4-3 7 0 2 1 5 3 6l112 113-112 112c-2 2-3 4-3 7 0 2 1 4 3 6l14 14c2 2 5 3 7 3 2 0 5-1 7-3l133-133c2-2 3-4 3-6z"/>
<glyph glyph-name="angle-up" unicode="&#72;" d="M399 174c0-3-1-5-3-7l-15-14c-1-2-4-3-6-3-3 0-5 1-7 3l-112 112-112-112c-2-2-4-3-7-3-2 0-5 1-6 3l-15 14c-2 2-3 4-3 7 0 2 1 4 3 6l133 133c2 2 5 3 7 3 2 0 5-1 7-3l133-133c2-2 3-4 3-6z"/>
<glyph glyph-name="search-1" unicode="&#73;" d="M320 512c-106 0-192-86-192-192 0-32 8-63 22-90l-133-133 0 0c-11-11-17-25-17-41 0-31 25-56 56-56 16 0 30 6 41 17l0 0 133 133c27-14 58-22 90-22 106 0 192 86 192 192 0 106-86 192-192 192z m-243-475c-5-5-13-9-21-9-15 0-28 13-28 28 0 8 4 15 9 21l0 0 129 129c11-15 25-29 40-40z m243 123c-88 0-160 72-160 160 0 88 72 160 160 160 88 0 160-72 160-160 0-88-72-160-160-160z m0 272c-62 0-112-50-112-112 0-4 4-8 8-8 4 0 8 4 8 8 0 53 43 96 96 96 4 0 8 4 8 8 0 4-4 8-8 8z"/>
<glyph glyph-name="message" unicode="&#74;" d="M441 475l-370 0c-39 0-71-32-71-71l0-205c0-40 32-72 71-72l230 0 104-88c2-1 4-2 7-2 1 0 3 0 4 1 4 2 6 5 6 9l0 80 19 0c39 0 71 32 71 72l0 205c0 39-32 71-71 71z m51-276c0-28-23-51-51-51l-29 0c-6 0-11-4-11-10l0-68-89 76c-2 2-5 2-7 2l-234 0c-28 0-50 23-50 51l0 205c0 28 22 50 50 50l370 0c28 0 51-22 51-50z m-68 180l-335 0c-6 0-11-4-11-10 0-6 5-11 11-11l335 0c5 0 10 5 10 11 0 6-5 10-10 10z m0-67l-335 0c-6 0-11-5-11-10 0-6 5-11 11-11l335 0c5 0 10 5 10 11 0 5-5 10-10 10z m0-67l-335 0c-6 0-11-5-11-10 0-6 5-11 11-11l335 0c5 0 10 5 10 11 0 5-5 10-10 10z"/>
<glyph glyph-name="arrow-right-thin" unicode="&#76;" d="M256 0c141 0 256 115 256 256 0 141-115 256-256 256-141 0-256-115-256-256 0-141 115-256 256-256z m0 472c119 0 216-97 216-216 0-119-97-216-216-216-119 0-216 97-216 216 0 119 97 216 216 216z m-43-323c6-7 16-7 22 0l96 96c7 6 7 16 0 22l-96 96c-3 3-7 5-11 5-4 0-8-2-11-5-7-6-7-16 0-22l84-85-84-85c-7-6-7-16 0-22z"/>
<glyph glyph-name="arrow-left-thin" unicode="&#75;" d="M256 512c-141 0-256-115-256-256 0-141 115-256 256-256 141 0 256 115 256 256 0 141-115 256-256 256z m0-472c-119 0-216 97-216 216 0 119 97 216 216 216 119 0 216-97 216-216 0-119-97-216-216-216z m49 323c-6 7-16 7-22 0l-96-96c-7-6-7-16 0-22l96-96c3-3 7-5 11-5 4 0 8 2 11 5 7 6 7 16 0 22l-84 85 84 85c7 6 7 16 0 22z"/>
<glyph glyph-name="google110" unicode="&#77;" d="M265 334c0 35-20 88-60 88-13 0-26-6-34-15-8-11-10-24-10-36 0-32 18-86 60-86 12 0 25 6 32 14 12 11 12 26 12 35z m-25-127c-4 1-7 1-12 1-4 0-30-1-50-8-11-4-41-15-41-50 0-34 33-58 84-58 46 0 71 22 71 52 0 24-16 37-52 63z m16 299c-138 0-250-112-250-250 0-138 112-250 250-250 138 0 250 112 250 250 0 138-112 250-250 250z m-58-435c-70 0-104 34-104 69 0 18 9 42 37 59 30 18 71 21 92 22-7 9-14 18-14 33 0 8 2 13 5 19-6-1-11-1-16-1-51 0-80 38-80 75 0 22 10 47 31 65 28 23 65 29 91 29l95 0-32-20-29 0c11-9 34-28 34-65 0-36-20-53-41-68-6-7-13-13-13-24 0-11 7-16 12-21l18-13c21-18 40-34 40-68 0-45-44-91-126-91z m207 191l0-49-24 0 0 49-48 0 0 24 48 0 0 48 24 0 0-48 48 0 0-24z"/>
<glyph glyph-name="camera" unicode="&#78;" d="M256 352c-71 0-128-57-128-128 0-71 57-128 128-128 71 0 128 57 128 128 0 71-57 128-128 128z m73-190c-35-41-95-45-135-11-41 35-45 95-11 135 35 41 95 45 135 11 41-35 45-95 11-135z m-73 126c-35 0-64-29-64-64l0 0c0-4 4-8 8-8 4 0 8 4 8 8l0 0c0 26 21 48 48 48 4 0 8 4 8 8 0 4-4 8-8 8z m216 79l-69 12-22 55c-8 18-25 30-45 30l-160 0c-20 0-37-12-45-30l-22-55-69-12c-23-4-40-23-40-47l0-240c0-26 22-48 48-48l416 0c26 0 48 22 48 48l0 240c0 24-17 43-40 47z m8-287c0-9-7-16-16-16l-416 0c-9 0-16 7-16 16l0 240c0 8 6 14 13 16l87 14 29 72c3 6 8 10 15 10l160 0c7 0 12-4 15-10l29-72 87-14c7-2 13-8 13-16z"/>
<glyph glyph-name="braintree" unicode="&#113;" d="M256 159c37 0 67-30 67-67 0-37-30-66-67-66-37 0-67 29-67 66 0 37 30 67 67 67m0 25c-51 0-92-41-92-92 0-51 41-92 92-92 51 0 92 41 92 92 0 51-41 92-92 92z m0 302c37 0 67-29 67-66 0-37-30-67-67-67-37 0-67 30-67 67 0 37 30 66 67 66m0 26c-51 0-92-41-92-92 0-51 41-92 92-92 51 0 92 41 92 92 0 51-41 92-92 92z m-159-189c37 0 67-30 67-67 0-37-30-67-67-67-36 0-66 30-66 67 0 37 30 67 66 67m0 25c-51 0-92-41-92-92 0-51 41-92 92-92 51 0 92 41 92 92 0 51-41 92-92 92z m318-25c36 0 66-30 66-67 0-37-30-67-66-67-37 0-67 30-67 67 0 37 30 67 67 67m0 25c-51 0-92-41-92-92 0-51 41-92 92-92 51 0 92 41 92 92 0 51-41 92-92 92z"/>
<glyph glyph-name="phone" unicode="&#79;" d="M512 286c-11 57-38 108-79 149-40 41-92 67-148 77-6 1-13-3-14-10 0-8 3-14 11-14 51-9 98-34 134-70 38-38 63-85 71-136 1-7 6-10 12-10 0 0 2 0 2 0 6 0 11 7 11 14z m-105-18c8 1 11 7 11 14-7 34-22 65-47 89-25 25-55 41-89 47-8 1-14-3-14-10-2-7 3-14 9-14 30-4 56-18 77-40 20-21 34-47 39-77 1-5 6-9 12-9 0 0 2 0 2 0z m23-241c7 7 13 14 21 20 4 5 9 9 14 14 9 9 15 22 15 36 0 14-7 25-17 34l-59 61c-10 10-22 16-35 16-14 0-26-6-36-16l-36-36-1 2c-3 2-7 3-8 3-5 3-8 5-11 6-36 22-66 50-91 83-12 14-22 30-30 47l-1 2 1 1c10 8 18 16 25 25 4 4 7 7 10 10 22 22 22 48 0 72l-30 30c-3 3-6 6-9 9-8 8-14 14-21 20-9 10-21 16-36 16-12 0-25-6-34-16l-38-37c-14-14-21-30-23-49-2-28 5-55 14-80 9-25 20-48 33-70 16-23 33-47 50-69 47-56 105-102 171-133 29-14 61-26 95-28 2 0 5 0 6 0 24 0 44 8 61 27z m-316 422c6-6 13-12 21-20 3-3 6-7 9-10l30-31c12-12 12-23 0-36-3-3-7-6-10-9-8-10-17-19-26-27 0-2 0-2 0-2l-2 0c-6-6-8-12-5-21 0 0 0 0 0-2 10-20 22-38 36-56 27-35 58-64 96-88 5-3 9-5 14-6 3-3 6-5 11-6 0 0 0-2 0-2 3-2 6-2 11-2 5 0 9 4 14 7l37 37c5 5 11 10 19 10 7 0 13-5 17-10l60-59c12-13 12-27 0-39-3-3-8-8-13-13-7-8-14-14-22-22-10-12-25-19-42-19-1 0-3 0-4 2-32 2-60 13-86 25-63 30-118 74-163 127-17 20-33 42-47 66-13 20-24 42-31 65-8 22-15 46-13 69 2 14 6 25 16 35l37 37c5 5 11 8 17 8 8 0 15-3 19-8z"/>
<glyph glyph-name="play" unicode="&#80;" d="M52 512l408 0c25 0 51-26 51-52l0-408c0-25-26-51-51-51l-408 0c-26 0-52 26-52 51l0 408c0 26 26 52 52 52z m408-41l-408 0c0 0-6 0-6-5-5 0-5-6-5-6l0-408c0 0 0-5 5-5 0-5 6-5 6-5l408 0c0 0 5 0 5 5 5 0 5 5 5 5l0 408c0 0 0 6-5 6 0 5-5 5-5 5z m-290-331l0 233c0 10 11 20 21 20 5 0 5-5 10-5l160-129c6-5 11-16 6-26-6 0-6 0-6 0l-160-108c-10-5-20-5-25 5-6 0-6 5-6 10z m37 196l0-165 113 78z"/>
<glyph glyph-name="chat-bubble-two" unicode="&#81;" d="M201 402c-29 0-56-5-82-15-25-9-45-23-60-40-15-17-22-35-22-54 0-16 5-31 15-46 10-14 24-27 42-37l28-16-10-24c6 4 12 7 18 11l12 9 15-3c15-3 30-4 44-4 29 0 57 5 82 15 25 10 45 23 60 40 15 17 23 35 23 55 0 19-8 37-23 54-15 17-35 31-60 40-25 10-53 15-82 15z m0 37c37 0 70-7 101-20 31-13 56-31 73-53 18-22 27-47 27-73 0-27-9-51-27-74-17-22-42-40-73-53-31-13-64-20-101-20-16 0-33 2-50 5-24-17-50-29-80-37-6-1-15-3-24-4l-1 0c-2 0-4 0-6 2-2 2-3 4-3 6 0 1 0 1 0 2 0 1 0 1 0 2 0 0 0 1 0 1l1 2c0 0 0 0 1 1 1 1 1 2 1 2 0 0 1 0 1 1 1 1 2 2 2 2 1 1 3 3 6 7 4 3 6 6 8 8 1 2 3 5 6 8 3 4 5 8 7 11 2 4 4 8 6 13-24 14-42 31-56 51-13 20-20 41-20 64 0 26 9 51 27 73 18 22 42 40 73 53 31 13 65 20 101 20z m235-334c2-5 4-9 6-13 2-4 4-7 7-11 3-3 5-6 6-8 2-2 4-5 8-8 3-4 5-6 6-8 1 0 1 0 2-1 0-1 1-1 1-1 0-1 1-1 1-2 0 0 1-1 1-1l1-2c0 0 0 0 0-1 1-2 1-2 0-2 0 0 0-1 0-2 0-3-2-5-4-6-1-2-4-3-6-2-9 1-18 2-24 4-30 8-56 20-80 37-17-3-34-5-50-5-52 0-97 13-135 38 11-1 19-1 25-1 31 0 60 4 88 13 29 8 54 20 76 36 24 18 42 38 55 61 12 23 19 47 19 73 0 14-2 29-7 43 25-14 44-30 59-51 14-20 21-42 21-66 0-22-7-44-20-64-14-20-32-36-56-50z"/>
<glyph glyph-name="paper-plane-o" unicode="&#82;" d="M504 509c6-5 9-11 8-18l-73-439c-1-6-4-10-10-13-2-2-5-2-8-2-3 0-5 0-7 1l-151 61-85-93c-3-4-8-6-13-6-3 0-5 0-7 1-4 1-6 4-9 7-2 3-3 6-3 10l0 129-135 56c-7 2-10 7-11 15-1 8 2 13 9 17l476 274c6 4 13 4 19 0z m-98-428l63 378-409-237 96-39 246 183-136-228z"/>
</font>
</defs>
</svg>
